{"title":"Johnny English Strikes Again 2018 HDCAM x264 AAC [MW]","magnet":"magnet:?xt=urn:btih:d1274bc2921266489def7d5feb7716c1a81da701&dn=Johnny+English+Strikes+Again+2018+HDCAM+x264+AAC+%5BMW%5D&tr=udp%3A%2F%2Ftracker.leechers-paradise.org%3A6969&tr=udp%3A%2F%2Fzer0day.ch%3A1337&tr=udp%3A%2F%2Fopen.demonii.com%3A1337&tr=udp%3A%2F%2Ftracker.coppersurfer.tk%3A6969&tr=udp%3A%2F%2Fexodus.desync.com%3A6969","uploader":"MFreaky","categoryP":"video","categoryS":"movies","size":"833666370","seeders":"38","leechers":"47","description":" <a href=\"https://pichub.site/image/Ek3e5\" rel=\"nofollow\" target=\"_NEW\">https://pichub.site/image/Ek3e5</a> <a href=\"\nhttps://pichub.site/image/Eks2J\" rel=\"nofollow\" target=\"_NEW\">\nhttps://pichub.site/image/Eks2J</a> <a href=\"\nhttps://pichub.site/image/Eknt8\" rel=\"nofollow\" target=\"_NEW\">\nhttps://pichub.site/image/Eknt8</a> <a href=\"\nhttps://pichub.site/image/EkXMX\" rel=\"nofollow\" target=\"_NEW\">\nhttps://pichub.site/image/EkXMX</a> <a href=\"\nhttps://pichub.site/image/Ek6nI\" rel=\"nofollow\" target=\"_NEW\">\nhttps://pichub.site/image/Ek6nI</a> <a href=\"\nhttps://pichub.site/image/Eklgg\" rel=\"nofollow\" target=\"_NEW\">\nhttps://pichub.site/image/Eklgg</a>\r\n\r\nIMDB <a href=\"\nhttps://www.imdb.com/title/tt6921996/\" rel=\"nofollow\" target=\"_NEW\">\nhttps://www.imdb.com/title/tt6921996/</a>\r\n\r\nVideo\r\nFormat                                   : AVC\r\nFormat/Info                              : Advanced Video Codec\r\nFormat profile                           : High@L4.1\r\nFormat settings                          : CABAC / 4 Ref Frames\r\nFormat settings, CABAC                   : Yes\r\nFormat settings, RefFrames               : 4 frames\r\nCodec ID                                 : V_MPEG4/ISO/AVC\r\nDuration                                 : 1 h 23 min\r\nBit rate                                 : 1 200 kb/s\r\nWidth                                    : 720 pixels\r\nHeight                                   : 314 pixels\r\nDisplay aspect ratio                     : 2.25:1\r\nFrame rate mode                          : Constant\r\nFrame rate                               : 29.970 (30000/1001) FPS\r\nColor space                              : YUV\r\nChroma subsampling                       : 4:2:0\r\nBit depth                                : 8 bits\r\nScan type                                : Progressive\r\nBits/(Pixel*Frame)                       : 0.177\r\nStream size                              : 717 MiB (90%)\r\nWriting library                          : x264 core 155 r2901 7d0ff22\r\n\r\nAudio\r\nFormat                                   : AAC\r\nFormat/Info                              : Advanced Audio Codec\r\nFormat profile                           : LC\r\nCodec ID                                 : A_AAC-2\r\nDuration                                 : 1 h 23 min\r\nBit rate                                 : 128 kb/s\r\nChannel(s)                               : 2 channels\r\nChannel positions                        : Front: L R\r\nSampling rate                            : 48.0 kHz\r\nFrame rate                               : 46.875 FPS (1024 SPF)\r\nCompression mode                         : Lossy\r\nStream size                              : 76.5 MiB (10%)\r\nLanguage                                 : English","last_updated":"2018-09-19T12:20:56.695Z","parsed":{"xt":"urn:btih:d1274bc2921266489def7d5feb7716c1a81da701","dn":"Johnny English Strikes Again 2018 HDCAM x264 AAC [MW]","tr":["udp://exodus.desync.com:6969","udp://open.demonii.com:1337","udp://tracker.coppersurfer.tk:6969","udp://tracker.leechers-paradise.org:6969","udp://zer0day.ch:1337"],"infoHash":"d1274bc2921266489def7d5feb7716c1a81da701","infoHashBuffer":{"type":"Buffer","data":[209,39,75,194,146,18,102,72,157,239,125,95,235,119,22,193,168,29,167,1]},"name":"Johnny English Strikes Again 2018 HDCAM x264 AAC [MW]","announce":["udp://exodus.desync.com:6969","udp://open.demonii.com:1337","udp://tracker.coppersurfer.tk:6969","udp://tracker.leechers-paradise.org:6969","udp://zer0day.ch:1337"],"urlList":[]}}